<mxfile host="Electron" modified="2024-06-12T08:55:42.019Z" agent="Mozilla/5.0 (X11; Linux x86_64) AppleWebKit/537.36 (KHTML, like Gecko) draw.io/24.4.8 Chrome/124.0.6367.207 Electron/30.0.6 Safari/537.36" etag="VoO4dn6nwjfGdzpTBb4E" version="24.3.1" type="device">
  <diagram name="Page-1" id="HQ6p7cDR1sw3VFluNTTl">
    <mxGraphModel dx="711" dy="840" grid="1" gridSize="10" guides="1" tooltips="1" connect="1" arrows="1" fold="1" page="1" pageScale="1" pageWidth="827" pageHeight="1169" math="0" shadow="0">
      <root>
        <mxCell id="0" />
        <mxCell id="1" parent="0" />
        <mxCell id="c08GkZa1W9AZNbsfIRzl-18" value="" style="rounded=0;whiteSpace=wrap;html=1;dashed=1;fillColor=none;strokeWidth=2;strokeColor=#B3B3B3;" parent="1" vertex="1">
          <mxGeometry x="340" y="507.5" width="60" height="75" as="geometry" />
        </mxCell>
        <mxCell id="uDArvXW7a5tx-fPD2nT2-12" value="" style="rounded=0;whiteSpace=wrap;html=1;dashed=1;fillColor=none;strokeColor=#B3B3B3;strokeWidth=2;" parent="1" vertex="1">
          <mxGeometry x="550" y="310" width="60" height="60" as="geometry" />
        </mxCell>
        <mxCell id="uDArvXW7a5tx-fPD2nT2-10" value="" style="rounded=0;whiteSpace=wrap;html=1;dashed=1;fillColor=none;strokeWidth=2;strokeColor=#B3B3B3;" parent="1" vertex="1">
          <mxGeometry x="540" y="150" width="80" height="60" as="geometry" />
        </mxCell>
        <mxCell id="uDArvXW7a5tx-fPD2nT2-11" value="" style="rounded=0;whiteSpace=wrap;html=1;dashed=1;fillColor=none;strokeWidth=2;strokeColor=#B3B3B3;" parent="1" vertex="1">
          <mxGeometry x="230" y="150" width="280" height="120" as="geometry" />
        </mxCell>
        <mxCell id="uDArvXW7a5tx-fPD2nT2-8" value="" style="rounded=0;whiteSpace=wrap;html=1;dashed=1;fillColor=none;strokeWidth=2;strokeColor=#B3B3B3;" parent="1" vertex="1">
          <mxGeometry x="300" y="610" width="140" height="100" as="geometry" />
        </mxCell>
        <mxCell id="bbPfFzJEIJGORFe5W7QH-1" value="DAQ 1" style="rounded=0;whiteSpace=wrap;html=1;" parent="1" vertex="1">
          <mxGeometry x="240" y="240" width="50" height="20" as="geometry" />
        </mxCell>
        <mxCell id="bbPfFzJEIJGORFe5W7QH-2" value="DAQ 2" style="rounded=0;whiteSpace=wrap;html=1;" parent="1" vertex="1">
          <mxGeometry x="310" y="240" width="50" height="20" as="geometry" />
        </mxCell>
        <mxCell id="bbPfFzJEIJGORFe5W7QH-3" value="DAQ n-1" style="rounded=0;whiteSpace=wrap;html=1;" parent="1" vertex="1">
          <mxGeometry x="380" y="240" width="50" height="20" as="geometry" />
        </mxCell>
        <mxCell id="bbPfFzJEIJGORFe5W7QH-4" value="DAQ n" style="rounded=0;whiteSpace=wrap;html=1;" parent="1" vertex="1">
          <mxGeometry x="450" y="240" width="50" height="20" as="geometry" />
        </mxCell>
        <mxCell id="bbPfFzJEIJGORFe5W7QH-9" value="" style="shape=link;html=1;rounded=0;entryX=0.5;entryY=0;entryDx=0;entryDy=0;" parent="1" target="bbPfFzJEIJGORFe5W7QH-1" edge="1">
          <mxGeometry width="100" relative="1" as="geometry">
            <mxPoint x="265" y="200" as="sourcePoint" />
            <mxPoint x="320" y="170" as="targetPoint" />
          </mxGeometry>
        </mxCell>
        <mxCell id="bbPfFzJEIJGORFe5W7QH-10" value="" style="shape=link;html=1;rounded=0;entryX=0.5;entryY=0;entryDx=0;entryDy=0;" parent="1" edge="1">
          <mxGeometry width="100" relative="1" as="geometry">
            <mxPoint x="334.71" y="200" as="sourcePoint" />
            <mxPoint x="334.71" y="240" as="targetPoint" />
          </mxGeometry>
        </mxCell>
        <mxCell id="bbPfFzJEIJGORFe5W7QH-11" value="" style="shape=link;html=1;rounded=0;entryX=0.5;entryY=0;entryDx=0;entryDy=0;" parent="1" edge="1">
          <mxGeometry width="100" relative="1" as="geometry">
            <mxPoint x="404.71" y="200" as="sourcePoint" />
            <mxPoint x="404.71" y="240" as="targetPoint" />
          </mxGeometry>
        </mxCell>
        <mxCell id="bbPfFzJEIJGORFe5W7QH-12" value="" style="shape=link;html=1;rounded=0;entryX=0.5;entryY=0;entryDx=0;entryDy=0;" parent="1" edge="1">
          <mxGeometry width="100" relative="1" as="geometry">
            <mxPoint x="474.71" y="200" as="sourcePoint" />
            <mxPoint x="474.71" y="240" as="targetPoint" />
          </mxGeometry>
        </mxCell>
        <mxCell id="bbPfFzJEIJGORFe5W7QH-13" value="Spectrometer" style="rounded=1;whiteSpace=wrap;html=1;" parent="1" vertex="1">
          <mxGeometry x="240" y="160" width="260" height="40" as="geometry" />
        </mxCell>
        <mxCell id="bbPfFzJEIJGORFe5W7QH-15" value="EF 1" style="rounded=0;whiteSpace=wrap;html=1;" parent="1" vertex="1">
          <mxGeometry x="240" y="320" width="50" height="20" as="geometry" />
        </mxCell>
        <mxCell id="bbPfFzJEIJGORFe5W7QH-16" value="EF 2" style="rounded=0;whiteSpace=wrap;html=1;" parent="1" vertex="1">
          <mxGeometry x="310" y="320" width="50" height="20" as="geometry" />
        </mxCell>
        <mxCell id="bbPfFzJEIJGORFe5W7QH-17" value="EF n-1" style="rounded=0;whiteSpace=wrap;html=1;" parent="1" vertex="1">
          <mxGeometry x="380" y="320" width="50" height="20" as="geometry" />
        </mxCell>
        <mxCell id="bbPfFzJEIJGORFe5W7QH-18" value="EF n" style="rounded=0;whiteSpace=wrap;html=1;" parent="1" vertex="1">
          <mxGeometry x="450" y="320" width="50" height="20" as="geometry" />
        </mxCell>
        <mxCell id="bbPfFzJEIJGORFe5W7QH-19" value="" style="endArrow=classic;html=1;rounded=0;exitX=0.5;exitY=1;exitDx=0;exitDy=0;entryX=0.5;entryY=0;entryDx=0;entryDy=0;fillColor=#fff2cc;strokeColor=#d6b656;" parent="1" source="bbPfFzJEIJGORFe5W7QH-1" target="bbPfFzJEIJGORFe5W7QH-15" edge="1">
          <mxGeometry width="50" height="50" relative="1" as="geometry">
            <mxPoint x="360" y="300" as="sourcePoint" />
            <mxPoint x="410" y="250" as="targetPoint" />
          </mxGeometry>
        </mxCell>
        <mxCell id="bbPfFzJEIJGORFe5W7QH-20" value="" style="endArrow=classic;html=1;rounded=0;exitX=0.5;exitY=1;exitDx=0;exitDy=0;entryX=0.5;entryY=0;entryDx=0;entryDy=0;fillColor=#fff2cc;strokeColor=#d6b656;" parent="1" source="bbPfFzJEIJGORFe5W7QH-2" target="bbPfFzJEIJGORFe5W7QH-16" edge="1">
          <mxGeometry width="50" height="50" relative="1" as="geometry">
            <mxPoint x="360" y="300" as="sourcePoint" />
            <mxPoint x="410" y="250" as="targetPoint" />
          </mxGeometry>
        </mxCell>
        <mxCell id="bbPfFzJEIJGORFe5W7QH-21" value="" style="endArrow=classic;html=1;rounded=0;exitX=0.5;exitY=1;exitDx=0;exitDy=0;entryX=0.5;entryY=0;entryDx=0;entryDy=0;fillColor=#fff2cc;strokeColor=#d6b656;" parent="1" source="bbPfFzJEIJGORFe5W7QH-3" target="bbPfFzJEIJGORFe5W7QH-17" edge="1">
          <mxGeometry width="50" height="50" relative="1" as="geometry">
            <mxPoint x="390" y="290" as="sourcePoint" />
            <mxPoint x="420" y="290" as="targetPoint" />
          </mxGeometry>
        </mxCell>
        <mxCell id="bbPfFzJEIJGORFe5W7QH-22" value="" style="endArrow=classic;html=1;rounded=0;exitX=0.5;exitY=1;exitDx=0;exitDy=0;entryX=0.5;entryY=0;entryDx=0;entryDy=0;fillColor=#fff2cc;strokeColor=#d6b656;" parent="1" source="bbPfFzJEIJGORFe5W7QH-4" target="bbPfFzJEIJGORFe5W7QH-18" edge="1">
          <mxGeometry width="50" height="50" relative="1" as="geometry">
            <mxPoint x="360" y="300" as="sourcePoint" />
            <mxPoint x="410" y="250" as="targetPoint" />
          </mxGeometry>
        </mxCell>
        <mxCell id="bbPfFzJEIJGORFe5W7QH-23" value="" style="endArrow=classic;html=1;rounded=0;exitX=0.5;exitY=1;exitDx=0;exitDy=0;entryX=0.906;entryY=1.009;entryDx=0;entryDy=0;entryPerimeter=0;fillColor=#dae8fc;strokeColor=#6c8ebf;" parent="1" source="bbPfFzJEIJGORFe5W7QH-15" edge="1">
          <mxGeometry width="50" height="50" relative="1" as="geometry">
            <mxPoint x="360" y="300" as="sourcePoint" />
            <mxPoint x="264.44000000000005" y="399.64" as="targetPoint" />
          </mxGeometry>
        </mxCell>
        <mxCell id="bbPfFzJEIJGORFe5W7QH-24" value="" style="endArrow=classic;html=1;rounded=0;exitX=0.5;exitY=1;exitDx=0;exitDy=0;entryX=0.633;entryY=0.98;entryDx=0;entryDy=0;entryPerimeter=0;fillColor=#dae8fc;strokeColor=#6c8ebf;" parent="1" source="bbPfFzJEIJGORFe5W7QH-16" edge="1">
          <mxGeometry width="50" height="50" relative="1" as="geometry">
            <mxPoint x="360" y="300" as="sourcePoint" />
            <mxPoint x="335.4200000000001" y="400.80000000000007" as="targetPoint" />
          </mxGeometry>
        </mxCell>
        <mxCell id="bbPfFzJEIJGORFe5W7QH-25" value="" style="endArrow=classic;html=1;rounded=0;exitX=0.5;exitY=1;exitDx=0;exitDy=0;entryX=0.363;entryY=1.003;entryDx=0;entryDy=0;entryPerimeter=0;fillColor=#dae8fc;strokeColor=#6c8ebf;" parent="1" source="bbPfFzJEIJGORFe5W7QH-17" edge="1">
          <mxGeometry width="50" height="50" relative="1" as="geometry">
            <mxPoint x="360" y="300" as="sourcePoint" />
            <mxPoint x="405.6200000000001" y="399.88" as="targetPoint" />
          </mxGeometry>
        </mxCell>
        <mxCell id="bbPfFzJEIJGORFe5W7QH-26" value="" style="endArrow=classic;html=1;rounded=0;exitX=0.5;exitY=1;exitDx=0;exitDy=0;entryX=0.096;entryY=1;entryDx=0;entryDy=0;entryPerimeter=0;fillColor=#dae8fc;strokeColor=#6c8ebf;" parent="1" source="bbPfFzJEIJGORFe5W7QH-18" edge="1">
          <mxGeometry width="50" height="50" relative="1" as="geometry">
            <mxPoint x="360" y="300" as="sourcePoint" />
            <mxPoint x="475.03999999999974" y="400" as="targetPoint" />
          </mxGeometry>
        </mxCell>
        <mxCell id="bbPfFzJEIJGORFe5W7QH-27" value="Event Buffer and Aggregation" style="rounded=0;whiteSpace=wrap;html=1;" parent="1" vertex="1">
          <mxGeometry x="240" y="400" width="260" height="20" as="geometry" />
        </mxCell>
        <mxCell id="bbPfFzJEIJGORFe5W7QH-29" value="File Writer" style="rounded=0;whiteSpace=wrap;html=1;" parent="1" vertex="1">
          <mxGeometry x="310" y="460" width="120" height="20" as="geometry" />
        </mxCell>
        <mxCell id="bbPfFzJEIJGORFe5W7QH-34" value="" style="endArrow=classic;html=1;rounded=0;entryX=0.5;entryY=0;entryDx=0;entryDy=0;fillColor=#dae8fc;strokeColor=#6c8ebf;exitX=0.5;exitY=1;exitDx=0;exitDy=0;" parent="1" target="bbPfFzJEIJGORFe5W7QH-29" edge="1" source="bbPfFzJEIJGORFe5W7QH-27">
          <mxGeometry width="50" height="50" relative="1" as="geometry">
            <mxPoint x="370" y="450" as="sourcePoint" />
            <mxPoint x="340" y="340" as="targetPoint" />
          </mxGeometry>
        </mxCell>
        <mxCell id="uDArvXW7a5tx-fPD2nT2-4" style="edgeStyle=orthogonalEdgeStyle;rounded=0;orthogonalLoop=1;jettySize=auto;html=1;exitX=0.5;exitY=1;exitDx=0;exitDy=0;entryX=0.5;entryY=0;entryDx=0;entryDy=0;fillColor=#dae8fc;strokeColor=#6c8ebf;" parent="1" source="bbPfFzJEIJGORFe5W7QH-42" target="uDArvXW7a5tx-fPD2nT2-3" edge="1">
          <mxGeometry relative="1" as="geometry" />
        </mxCell>
        <mxCell id="bbPfFzJEIJGORFe5W7QH-42" value="Event Filtering" style="rounded=0;whiteSpace=wrap;html=1;" parent="1" vertex="1">
          <mxGeometry x="310" y="620" width="120" height="20" as="geometry" />
        </mxCell>
        <mxCell id="kFamXyLwhQrRJ-NWmJqP-3" style="edgeStyle=orthogonalEdgeStyle;rounded=0;orthogonalLoop=1;jettySize=auto;html=1;exitX=0.5;exitY=1;exitDx=0;exitDy=0;exitPerimeter=0;entryX=0.5;entryY=0;entryDx=0;entryDy=0;" edge="1" parent="1" source="bbPfFzJEIJGORFe5W7QH-45" target="bbPfFzJEIJGORFe5W7QH-42">
          <mxGeometry relative="1" as="geometry" />
        </mxCell>
        <mxCell id="bbPfFzJEIJGORFe5W7QH-45" value="Event&lt;br&gt;NeXus" style="shape=note;whiteSpace=wrap;html=1;backgroundOutline=1;darkOpacity=0.05;size=14;" parent="1" vertex="1">
          <mxGeometry x="350" y="520" width="40" height="50" as="geometry" />
        </mxCell>
        <mxCell id="bbPfFzJEIJGORFe5W7QH-46" value="Histo.&lt;br&gt;NeXus" style="shape=note;whiteSpace=wrap;html=1;backgroundOutline=1;darkOpacity=0.05;size=14;" parent="1" vertex="1">
          <mxGeometry x="350" y="750" width="40" height="50" as="geometry" />
        </mxCell>
        <mxCell id="bbPfFzJEIJGORFe5W7QH-58" value="ADC traces" style="text;html=1;strokeColor=#d6b656;fillColor=#fff2cc;align=center;verticalAlign=middle;whiteSpace=wrap;rounded=0;" parent="1" vertex="1">
          <mxGeometry x="150" y="280" width="70" height="20" as="geometry" />
        </mxCell>
        <mxCell id="bbPfFzJEIJGORFe5W7QH-59" value="Event Lists" style="text;html=1;strokeColor=#6c8ebf;fillColor=#dae8fc;align=center;verticalAlign=middle;whiteSpace=wrap;rounded=0;" parent="1" vertex="1">
          <mxGeometry x="150" y="360" width="70" height="20" as="geometry" />
        </mxCell>
        <mxCell id="bbPfFzJEIJGORFe5W7QH-61" value="EPICS / IBEX" style="rounded=0;whiteSpace=wrap;html=1;" parent="1" vertex="1">
          <mxGeometry x="560" y="320" width="40" height="40" as="geometry" />
        </mxCell>
        <mxCell id="bbPfFzJEIJGORFe5W7QH-62" value="" style="endArrow=none;html=1;rounded=0;exitX=0.5;exitY=1;exitDx=0;exitDy=0;endFill=0;fillColor=#f8cecc;strokeColor=#b85450;" parent="1" source="bbPfFzJEIJGORFe5W7QH-61" edge="1">
          <mxGeometry width="50" height="50" relative="1" as="geometry">
            <mxPoint x="360" y="400" as="sourcePoint" />
            <mxPoint x="580" y="440" as="targetPoint" />
          </mxGeometry>
        </mxCell>
        <mxCell id="bbPfFzJEIJGORFe5W7QH-63" value="" style="endArrow=classic;html=1;rounded=0;entryX=0.75;entryY=0;entryDx=0;entryDy=0;fillColor=#f8cecc;strokeColor=#b85450;" parent="1" target="bbPfFzJEIJGORFe5W7QH-29" edge="1">
          <mxGeometry width="50" height="50" relative="1" as="geometry">
            <mxPoint x="580" y="440" as="sourcePoint" />
            <mxPoint x="410" y="350" as="targetPoint" />
            <Array as="points">
              <mxPoint x="400" y="440" />
            </Array>
          </mxGeometry>
        </mxCell>
        <mxCell id="bbPfFzJEIJGORFe5W7QH-67" value="Metadata" style="text;html=1;strokeColor=#b85450;fillColor=#f8cecc;align=center;verticalAlign=middle;whiteSpace=wrap;rounded=0;" parent="1" vertex="1">
          <mxGeometry x="610" y="380" width="70" height="20" as="geometry" />
        </mxCell>
        <mxCell id="bbPfFzJEIJGORFe5W7QH-68" value="Status Packet Generator" style="rounded=0;whiteSpace=wrap;html=1;" parent="1" vertex="1">
          <mxGeometry x="550" y="160" width="60" height="40" as="geometry" />
        </mxCell>
        <mxCell id="bbPfFzJEIJGORFe5W7QH-69" value="" style="endArrow=classic;html=1;rounded=0;entryX=0.75;entryY=0;entryDx=0;entryDy=0;exitX=0.5;exitY=1;exitDx=0;exitDy=0;fillColor=#e1d5e7;strokeColor=#9673a6;" parent="1" edge="1">
          <mxGeometry width="50" height="50" relative="1" as="geometry">
            <mxPoint x="580" y="200" as="sourcePoint" />
            <mxPoint x="277.5" y="240" as="targetPoint" />
            <Array as="points">
              <mxPoint x="580" y="220" />
              <mxPoint x="278" y="220" />
            </Array>
          </mxGeometry>
        </mxCell>
        <mxCell id="bbPfFzJEIJGORFe5W7QH-70" value="" style="endArrow=classic;html=1;rounded=0;entryX=0.75;entryY=0;entryDx=0;entryDy=0;fillColor=#e1d5e7;strokeColor=#9673a6;" parent="1" target="bbPfFzJEIJGORFe5W7QH-2" edge="1">
          <mxGeometry width="50" height="50" relative="1" as="geometry">
            <mxPoint x="348" y="220" as="sourcePoint" />
            <mxPoint x="410" y="350" as="targetPoint" />
          </mxGeometry>
        </mxCell>
        <mxCell id="bbPfFzJEIJGORFe5W7QH-71" value="" style="endArrow=classic;html=1;rounded=0;entryX=0.75;entryY=0;entryDx=0;entryDy=0;fillColor=#e1d5e7;strokeColor=#9673a6;" parent="1" target="bbPfFzJEIJGORFe5W7QH-3" edge="1">
          <mxGeometry width="50" height="50" relative="1" as="geometry">
            <mxPoint x="418" y="220" as="sourcePoint" />
            <mxPoint x="410" y="350" as="targetPoint" />
          </mxGeometry>
        </mxCell>
        <mxCell id="bbPfFzJEIJGORFe5W7QH-72" value="" style="endArrow=classic;html=1;rounded=0;entryX=0.75;entryY=0;entryDx=0;entryDy=0;fillColor=#e1d5e7;strokeColor=#9673a6;" parent="1" target="bbPfFzJEIJGORFe5W7QH-4" edge="1">
          <mxGeometry width="50" height="50" relative="1" as="geometry">
            <mxPoint x="488" y="220" as="sourcePoint" />
            <mxPoint x="410" y="350" as="targetPoint" />
          </mxGeometry>
        </mxCell>
        <mxCell id="bbPfFzJEIJGORFe5W7QH-73" value="Status" style="text;html=1;strokeColor=#9673a6;fillColor=#e1d5e7;align=center;verticalAlign=middle;whiteSpace=wrap;rounded=0;" parent="1" vertex="1">
          <mxGeometry x="610" y="220" width="70" height="20" as="geometry" />
        </mxCell>
        <mxCell id="uDArvXW7a5tx-fPD2nT2-3" value="Histogram Acc." style="rounded=0;whiteSpace=wrap;html=1;" parent="1" vertex="1">
          <mxGeometry x="310" y="680" width="120" height="20" as="geometry" />
        </mxCell>
        <mxCell id="uDArvXW7a5tx-fPD2nT2-5" style="edgeStyle=orthogonalEdgeStyle;rounded=0;orthogonalLoop=1;jettySize=auto;html=1;exitX=0.5;exitY=1;exitDx=0;exitDy=0;entryX=0.5;entryY=0;entryDx=0;entryDy=0;entryPerimeter=0;" parent="1" source="uDArvXW7a5tx-fPD2nT2-3" target="bbPfFzJEIJGORFe5W7QH-46" edge="1">
          <mxGeometry relative="1" as="geometry" />
        </mxCell>
        <mxCell id="uDArvXW7a5tx-fPD2nT2-9" style="edgeStyle=orthogonalEdgeStyle;rounded=0;orthogonalLoop=1;jettySize=auto;html=1;exitX=0.5;exitY=1;exitDx=0;exitDy=0;entryX=0.5;entryY=0;entryDx=0;entryDy=0;entryPerimeter=0;" parent="1" source="bbPfFzJEIJGORFe5W7QH-29" target="bbPfFzJEIJGORFe5W7QH-45" edge="1">
          <mxGeometry relative="1" as="geometry" />
        </mxCell>
        <mxCell id="c08GkZa1W9AZNbsfIRzl-8" value="" style="endArrow=none;dashed=1;html=1;rounded=0;strokeWidth=2;strokeColor=#B3B3B3;" parent="1" edge="1">
          <mxGeometry width="50" height="50" relative="1" as="geometry">
            <mxPoint x="230" y="490" as="sourcePoint" />
            <mxPoint x="230" y="310" as="targetPoint" />
          </mxGeometry>
        </mxCell>
        <mxCell id="c08GkZa1W9AZNbsfIRzl-9" value="" style="endArrow=none;dashed=1;html=1;rounded=0;strokeWidth=2;strokeColor=#B3B3B3;" parent="1" edge="1">
          <mxGeometry width="50" height="50" relative="1" as="geometry">
            <mxPoint x="510" y="310" as="sourcePoint" />
            <mxPoint x="230" y="310" as="targetPoint" />
          </mxGeometry>
        </mxCell>
        <mxCell id="c08GkZa1W9AZNbsfIRzl-10" value="" style="endArrow=none;dashed=1;html=1;rounded=0;strokeWidth=2;strokeColor=#B3B3B3;" parent="1" edge="1">
          <mxGeometry width="50" height="50" relative="1" as="geometry">
            <mxPoint x="510" y="490" as="sourcePoint" />
            <mxPoint x="510" y="310" as="targetPoint" />
          </mxGeometry>
        </mxCell>
        <mxCell id="c08GkZa1W9AZNbsfIRzl-12" value="Anthony L" style="text;html=1;strokeColor=none;fillColor=none;align=left;verticalAlign=middle;whiteSpace=wrap;rounded=0;rotation=0;fontSize=10;" parent="1" vertex="1">
          <mxGeometry x="300" y="710" width="50" height="20" as="geometry" />
        </mxCell>
        <mxCell id="c08GkZa1W9AZNbsfIRzl-14" value="Dan P" style="text;html=1;strokeColor=none;fillColor=none;align=left;verticalAlign=middle;whiteSpace=wrap;rounded=0;rotation=0;fontSize=10;" parent="1" vertex="1">
          <mxGeometry x="230" y="130" width="60" height="20" as="geometry" />
        </mxCell>
        <mxCell id="c08GkZa1W9AZNbsfIRzl-15" value="Dave T" style="text;html=1;strokeColor=none;fillColor=none;align=left;verticalAlign=middle;whiteSpace=wrap;rounded=0;rotation=0;fontSize=10;" parent="1" vertex="1">
          <mxGeometry x="540" y="130" width="60" height="20" as="geometry" />
        </mxCell>
        <mxCell id="c08GkZa1W9AZNbsfIRzl-16" value="Freddie A" style="text;html=1;strokeColor=none;fillColor=none;align=left;verticalAlign=middle;whiteSpace=wrap;rounded=0;rotation=0;fontSize=10;" parent="1" vertex="1">
          <mxGeometry x="550" y="290" width="60" height="20" as="geometry" />
        </mxCell>
        <mxCell id="c08GkZa1W9AZNbsfIRzl-17" value="Dan N" style="text;html=1;strokeColor=none;fillColor=none;align=left;verticalAlign=middle;whiteSpace=wrap;rounded=0;rotation=0;fontSize=10;" parent="1" vertex="1">
          <mxGeometry x="230" y="490" width="60" height="20" as="geometry" />
        </mxCell>
        <mxCell id="c08GkZa1W9AZNbsfIRzl-19" value="Chris MS" style="text;html=1;strokeColor=none;fillColor=none;align=left;verticalAlign=middle;whiteSpace=wrap;rounded=0;rotation=0;fontSize=10;" parent="1" vertex="1">
          <mxGeometry x="400" y="570" width="60" height="20" as="geometry" />
        </mxCell>
        <mxCell id="kFamXyLwhQrRJ-NWmJqP-1" style="edgeStyle=orthogonalEdgeStyle;rounded=0;orthogonalLoop=1;jettySize=auto;html=1;exitX=0.5;exitY=1;exitDx=0;exitDy=0;exitPerimeter=0;" edge="1" parent="1" source="bbPfFzJEIJGORFe5W7QH-45" target="bbPfFzJEIJGORFe5W7QH-45">
          <mxGeometry relative="1" as="geometry" />
        </mxCell>
        <mxCell id="kFamXyLwhQrRJ-NWmJqP-2" value="" style="endArrow=none;dashed=1;html=1;rounded=0;strokeWidth=2;strokeColor=#B3B3B3;" edge="1" parent="1">
          <mxGeometry width="50" height="50" relative="1" as="geometry">
            <mxPoint x="510" y="490" as="sourcePoint" />
            <mxPoint x="230" y="490" as="targetPoint" />
          </mxGeometry>
        </mxCell>
      </root>
    </mxGraphModel>
  </diagram>
</mxfile>
